<?xml version="1.0" encoding="UTF-8" standalone="no"?>
<svg
   xmlns:dc="http://purl.org/dc/elements/1.1/"
   xmlns:cc="http://creativecommons.org/ns#"
   xmlns:rdf="http://www.w3.org/1999/02/22-rdf-syntax-ns#"
   xmlns:svg="http://www.w3.org/2000/svg"
   xmlns="http://www.w3.org/2000/svg"
   xmlns:sodipodi="http://sodipodi.sourceforge.net/DTD/sodipodi-0.dtd"
   xmlns:inkscape="http://www.inkscape.org/namespaces/inkscape"
   version="1.1"
   x="0px"
   y="0px"
   viewBox="0 0 24.603773 40"
   enable-background="new 0 0 100 100"
   xml:space="preserve"
   id="svg2"
   inkscape:version="0.91 r13725"
   sodipodi:docname="pear_logo.svg"
   width="24.603773"
   height="40"><metadata
     id="metadata16"><rdf:RDF><cc:Work
         rdf:about=""><dc:format>image/svg+xml</dc:format><dc:type
           rdf:resource="http://purl.org/dc/dcmitype/StillImage" /><dc:title></dc:title></cc:Work></rdf:RDF></metadata><defs
     id="defs14" /><sodipodi:namedview
     pagecolor="#ffffff"
     bordercolor="#666666"
     borderopacity="1"
     objecttolerance="10"
     gridtolerance="10"
     guidetolerance="10"
     inkscape:pageopacity="0"
     inkscape:pageshadow="2"
     inkscape:window-width="1600"
     inkscape:window-height="900"
     id="namedview12"
     showgrid="false"
     fit-margin-top="0"
     fit-margin-left="0"
     fit-margin-right="0"
     fit-margin-bottom="0"
     inkscape:zoom="3.776"
     inkscape:cx="17.346964"
     inkscape:cy="22.333302"
     inkscape:window-x="0"
     inkscape:window-y="0"
     inkscape:window-maximized="1"
     inkscape:current-layer="svg2" /><path
     inkscape:connector-curvature="0"
     id="path6"
     d="M 20.754717,20.09434 20.188679,19.603774 C 18.679245,18.320755 17.660377,16.54717 17.245283,14.622642 l -0.03774,-0.377359 c -0.150943,-2.264151 -1.849056,-4.113207 -4,-4.5660377 C 13.320755,7.5660378 14.528302,5.7169812 16.45283,4.773585 L 15.622641,3.0754717 C 14.037736,3.8679246 12.792453,5.1509434 12.075472,6.6981133 10.490566,4.3962265 7.8490566,3 5.0566037,3 4.1132075,3 3.1698113,3.1509434 2.2641509,3.4905661 L 1.0943396,3.9056604 1.7735849,4.9245283 C 3.3584905,7.264151 6,8.6981132 8.8301886,8.6981132 c 0.9056604,0 1.8113204,-0.1509433 2.7169814,-0.4528301 -0.113208,0.490566 -0.188679,0.981132 -0.226415,1.4716981 C 9.1320754,10.132076 7.4339622,11.981132 7.2830188,14.283019 L 7.245283,14.660377 C 6.8679245,16.54717 5.8490566,18.320755 4.3396226,19.603774 L 3.7735849,20.09434 C 1.3584905,22.169811 -2.5000002e-8,25.150943 -2.5000002e-8,28.320755 l 0,0.415094 C -2.5000002e-8,33.301887 3.6981132,37 8.2641509,37 l 0.4150943,0 C 9.9245283,37 11.169811,36.698113 12.301887,36.169811 13.433962,36.698113 14.679245,37 15.924528,37 l 0.415095,0 c 4.566037,0 8.264151,-3.698113 8.264151,-8.264151 l 0,-0.45283 c -0.07547,-3.132076 -1.433963,-6.150944 -3.849057,-8.188679 z"
     style="fill:#eed500;fill-opacity:1" /><text
     x="-17.5"
     y="59.899998"
     font-size="5px"
     font-weight="bold"
     id="text8"
     style="font-weight:bold;font-size:5px;font-family:'Helvetica Neue', Helvetica, Arial-Unicode, Arial, Sans-serif;fill:#000000">Created by Arthur Shlain</text>
<text
     x="-17.5"
     y="64.899994"
     font-size="5px"
     font-weight="bold"
     id="text10"
     style="font-weight:bold;font-size:5px;font-family:'Helvetica Neue', Helvetica, Arial-Unicode, Arial, Sans-serif;fill:#000000">from the Noun Project</text>
</svg>